#!OML:ASF H:\ManfredObstacles\Project 1\Capture day 2\Session 1\male.ASF
:FULLY-SPECIFIED
:DEGREES
767
root 1.95279 15.7919 -5.76268 -174.011 6.86668 180.859
lowerback -5.45555 1.69329 -0.426542
upperback 1.3895 2.29828 -0.165522
thorax 4.4858 1.13087 0.280402
lowerneck -35.2573 2.36652 6.03392
upperneck 39.1262 4.38211 -4.87401
head 22.5474 2.43025 -2.17516
rclavicle -2.2413e-014 2.5842e-015
rhumerus -27.0628 -7.90891 -86.3691
rradius 32.4809
rwrist 27.9696
rhand -0.209488 -6.35768
rfingers 7.12502
rthumb 25.3897 -34.6871
lclavicle -2.2413e-014 2.5842e-015
lhumerus -37.3334 32.4878 65.9248
lradius 16.0291
lwrist -67.3854
lhand 3.58288 4.72587
lfingers 7.12502
lthumb 29.0174 32.4866
rfemur 12.1472 4.50495 27.3968
rtibia -4.13472e-014
rfoot -6.24115 -8.60641
rtoes -20.2312
lfemur -35.8306 -8.52184 -13.6051
ltibia 23.1788
lfoot 7.03737 24.3417
ltoes -10.8962
768
root 1.94489 15.7795 -5.89586 -174.004 6.95314 180.849
lowerback -5.47728 1.72637 -0.396403
upperback 1.34373 2.34087 -0.18698
thorax 4.45238 1.15324 0.245114
lowerneck -35.3097 2.40225 6.05531
upperneck 39.0976 4.42961 -4.91546
head 22.5496 2.44014 -2.18824
rclavicle -2.37051e-014 5.96354e-016
rhumerus -27.141 -7.82685 -86.3895
rradius 32.5421
rwrist 27.9356
rhand -0.235567 -6.36213
rfingers 7.12502
rthumb 25.3647 -34.6951
lclavicle -2.37051e-014 5.96354e-016
lhumerus -38.2148 34.0321 64.4987
lradius 15.647
lwrist -69.1173
lhand 3.51585 4.7102
lfingers 7.12502
lthumb 28.9534 32.482
rfemur 12.6768 4.66035 27.3506
rtibia -3.18055e-015
rfoot -6.21894 -8.74217
rtoes -20.9084
lfemur -35.8498 -8.26932 -13.8745
ltibia 23.098
lfoot 7.17721 24.685
ltoes -10.833
769
root 1.93598 15.7657 -6.03079 -174.007 7.02268 180.831
lowerback -5.50846 1.76022 -0.368932
upperback 1.30884 2.38497 -0.210727
thorax 4.43569 1.17624 0.209653
lowerneck -35.3781 2.43063 6.06549
upperneck 39.0499 4.4596 -4.95076
head 22.5396 2.44033 -2.20124
rclavicle -1.72694e-014 7.95139e-016
rhumerus -27.224 -7.80313 -86.3742
rradius 32.5799
rwrist 27.9056
rhand -0.279233 -6.35048
rfingers 7.12502
rthumb 25.3229 -34.6894
lclavicle -1.72694e-014 7.95139e-016
lhumerus -39.1733 35.6547 62.9489
lradius 15.2672
lwrist -70.9919
lhand 3.43727 4.68867
lfingers 7.12502
lthumb 28.8783 32.4733
rfemur 13.2233 4.79912 27.2883
rtibia -3.18055e-015
rfoot -6.17083 -8.83771
rtoes -21.6608
lfemur -35.7787 -7.92025 -14.2414
ltibia 23.0796
lfoot 7.37326 24.897
ltoes -10.786
770
root 1.9261 15.7509 -6.16793 -174.019 7.08303 180.818
lowerback -5.55254 1.79204 -0.339432
upperback 1.28651 2.42617 -0.229605
thorax 4.4393 1.19767 0.178554
lowerneck -35.4666 2.44487 6.05168
upperneck 39.0473 4.48073 -4.96008
head 22.5652 2.44052 -2.19881
rclavicle -2.52208e-015 -2.78299e-015
rhumerus -27.3043 -7.82876 -86.3243
rradius 32.5866
rwrist 27.9212
rhand -0.306137 -6.34811
rfingers 7.12502
rthumb 25.2971 -34.6907
lclavicle -2.52208e-015 -2.78299e-015
lhumerus -40.2311 37.3634 61.2601
lradius 14.9009
lwrist -72.9989
lhand 3.36317 4.66858
lfingers 7.12502
lthumb 28.8075 32.4653
rfemur 13.7882 4.93004 27.2214
rtibia 4.45278e-014
rfoot -6.08057 -8.89485
rtoes -22.4055
lfemur -35.626 -7.54017 -14.6581
ltibia 23.1313
lfoot 7.70918 24.9663
ltoes -10.7905
771
root 1.91526 15.7356 -6.30751 -174.038 7.14101 180.796
lowerback -5.60997 1.82807 -0.316291
upperback 1.26397 2.47376 -0.253436
thorax 4.45026 1.22214 0.147007
lowerneck -35.5324 2.44288 6.01833
upperneck 39.028 4.47571 -4.94903
head 22.5674 2.43061 -2.18904
rclavicle 1.04735e-014 2.38542e-015
rhumerus -27.4163 -7.90808 -86.2405
rradius 32.5792
rwrist 27.9764
rhand -0.326825 -6.34799
rfingers 7.12502
rthumb 25.2773 -34.6934
lclavicle 1.04735e-014 2.38542e-015
lhumerus -41.3963 39.0837 59.4458
lradius 14.5539
lwrist -75.0571
lhand 3.30736 4.65496
lfingers 7.12502
lthumb 28.7542 32.4607
rfemur 14.3665 5.05956 27.1344
rtibia 3.18055e-015
rfoot -5.95491 -8.90665
rtoes -23.1192
lfemur -35.409 -7.17342 -15.111
ltibia 23.2595
lfoot 8.2061 24.8863
ltoes -10.8367
772
root 1.90351 15.7207 -6.45005 -174.062 7.20519 180.779
lowerback -5.67058 1.87209 -0.28856
upperback 1.22995 2.53148 -0.274877
thorax 4.45122 1.25175 0.116243
lowerneck -35.5624 2.43081 5.98721
upperneck 39.0207 4.45885 -4.92954
head 22.5665 2.42093 -2.17798
rclavicle 2.37299e-015 4.77083e-015
rhumerus -27.5862 -8.03363 -86.116
rradius 32.5542
rwrist 28.0102
rhand -0.36903 -6.3255
rfingers 7.12502
rthumb 25.2369 -34.6766
lclavicle 2.37299e-015 4.77083e-015
lhumerus -42.7291 40.8358 57.4512
lradius 14.2255
lwrist -77.2243
lhand 3.26037 4.63757
lfingers 7.12502
lthumb 28.7093 32.4509
rfemur 14.9582 5.19735 27.0425
rtibia -7.95139e-014
rfoot -5.78231 -8.8717
rtoes -23.7836
lfemur -35.1455 -6.83276 -15.5684
ltibia 23.4743
lfoot 8.82872 24.6033
ltoes -10.9041
773
root 1.89085 15.7076 -6.59572 -174.085 7.2752 180.754
lowerback -5.74694 1.91692 -0.271506
upperback 1.18962 2.59114 -0.296719
thorax 4.45415 1.28205 0.0917332
lowerneck -35.5942 2.39682 5.91658
upperneck 39.0497 4.4232 -4.86982
head 22.5871 2.40722 -2.14358
rclavicle 1.50455e-014 1.39149e-015
rhumerus -27.7916 -8.20143 -85.9508
rradius 32.51
rwrist 28.1059
rhand -0.400553 -6.28124
rfingers 7.12502
rthumb 25.2067 -34.6366
lclavicle 1.50455e-014 1.39149e-015
lhumerus -44.2146 42.58 55.3027
lradius 13.9194
lwrist -79.422
lhand 3.21925 4.6188
lfingers 7.12502
lthumb 28.67 32.4388
rfemur 15.553 5.3428 26.9311
rtibia 0
rfoot -5.55336 -8.7919
rtoes -24.4416
lfemur -34.8636 -6.5441 -16.026
ltibia 23.7763
lfoot 9.5046 24.0878
ltoes -10.8726
774
root 1.87735 15.6973 -6.74472 -174.115 7.36099 180.724
lowerback -5.83436 1.97248 -0.255458
upperback 1.14064 2.66538 -0.321523
thorax 4.45452 1.31962 0.0664465
lowerneck -35.7438 2.37584 5.89287
upperneck 38.726 4.34653 -4.78227
head 23.1019 2.41421 -2.16374
rclavicle -4.44284e-014 -3.97569e-016
rhumerus -28.0366 -8.41823 -85.7464
rradius 32.4337
rwrist 28.1822
rhand -0.458558 -6.21356
rfingers 7.12502
rthumb 25.1511 -34.5767
lclavicle -4.44284e-014 -3.97569e-016
lhumerus -45.8385 44.2636 53.031
lradius 13.6427
lwrist -81.6045
lhand 3.1882 4.60356
lfingers 7.12502
lthumb 28.6404 32.4286
rfemur 16.1554 5.50537 26.8057
rtibia 2.54444e-014
rfoot -5.26854 -8.66759
rtoes -25.1431
lfemur -34.5755 -6.3359 -16.4528
ltibia 24.161
lfoot 10.0999 23.4026
ltoes -10.652
775
root 1.86316 15.6906 -6.8966 -174.137 7.45664 180.697
lowerback -5.94208 2.02986 -0.238326
upperback 1.07903 2.74195 -0.34435
thorax 4.45326 1.35837 0.0434525
lowerneck -35.7437 2.32795 5.82218
upperneck 38.7848 4.28995 -4.69591
head 23.1353 2.40117 -2.11965
rclavicle 3.72721e-015 7.95139e-016
rhumerus -28.3173 -8.67818 -85.5096
rradius 32.3358
rwrist 28.2605
rhand -0.511815 -6.16011
rfingers 7.12502
rthumb 25.1001 -34.5304
lclavicle 3.72721e-015 7.95139e-016
lhumerus -47.6331 45.8964 50.6024
lradius 13.3913
lwrist -83.7797
lhand 3.14796 4.58193
lfingers 7.12502
lthumb 28.6019 32.4134
rfemur 16.751 5.68094 26.6755
rtibia -5.08889e-014
rfoot -4.91464 -8.49398
rtoes -25.8963
lfemur -34.306 -6.19199 -16.8372
ltibia 24.6052
lfoot 10.5668 22.5661
ltoes -10.2141
776
root 1.84862 15.6877 -7.05072 -174.16 7.55104 180.655
lowerback -6.05899 2.08027 -0.242519
upperback 1.01852 2.8111 -0.368214
thorax 4.45743 1.39293 0.0311316
lowerneck -35.7709 2.29305 5.77987
upperneck 38.883 4.24651 -4.61326
head 23.2146 2.39994 -2.07949
rclavicle -7.70291e-015 -1.59028e-015
rhumerus -28.6034 -8.96168 -85.2512
rradius 32.2147
rwrist 28.342
rhand -0.568793 -6.1235
rfingers 7.12502
rthumb 25.0455 -34.5014
lclavicle -7.70291e-015 -1.59028e-015
lhumerus -49.5168 47.4259 48.1181
lradius 13.1713
lwrist -85.846
lhand 3.11594 4.57991
lfingers 7.12502
lthumb 28.5713 32.4166
rfemur 17.3428 5.85581 26.5269
rtibia 9.54166e-015
rfoot -4.48597 -8.27808
rtoes -26.7041
lfemur -34.0472 -6.09749 -17.1994
ltibia 25.0807
lfoot 10.8276 21.6629
ltoes -9.54936
